<svg
  width="1em"
  height="1em"
  viewBox="0 0 17 17"
  fill="currentColor"
  xmlns="http://www.w3.org/2000/svg"
>
  <path
    d="M9.95245 1.9481L13.447 3.96792C13.6096 3.79702 13.8098 3.66629 14.0316 3.58607C14.2535 3.50585 14.4909 3.47834 14.7253 3.5057C14.9596 3.53306 15.1843 3.61456 15.3817 3.74374C15.5791 3.87292 15.7437 4.04624 15.8626 4.25001C15.9801 4.45454 16.0483 4.68362 16.0619 4.9191C16.0754 5.15457 16.034 5.38997 15.9408 5.60664C15.8476 5.82331 15.7052 6.0153 15.5249 6.16738C15.3446 6.31947 15.1314 6.42748 14.9021 6.48285V10.5198C15.1318 10.574 15.3456 10.6813 15.5263 10.8331C15.707 10.9849 15.8496 11.1769 15.9427 11.3937C16.0358 11.6106 16.0767 11.8462 16.0623 12.0818C16.0478 12.3173 15.9783 12.5462 15.8594 12.75C15.7392 12.9576 15.5715 13.1337 15.3701 13.264C15.1687 13.3943 14.9393 13.475 14.7007 13.4996C14.4621 13.5241 14.221 13.4918 13.9973 13.4053C13.7736 13.3188 13.5735 13.1805 13.4135 13.0018L9.93811 15.0078C10.0134 15.2356 10.0336 15.478 9.99702 15.7151C9.96043 15.9522 9.8681 16.1772 9.72762 16.3717C9.58713 16.5661 9.40251 16.7245 9.18891 16.8337C8.97532 16.943 8.73886 17 8.49895 17C8.26315 17.0002 8.03057 16.9453 7.81974 16.8397C7.60891 16.7341 7.42566 16.5807 7.28459 16.3917C7.14352 16.2028 7.04854 15.9835 7.0072 15.7513C6.96587 15.5192 6.97933 15.2806 7.04651 15.0546L3.5493 13.0374C3.41196 13.1818 3.24749 13.2976 3.0653 13.3783C2.88311 13.4589 2.68679 13.5028 2.4876 13.5075C2.28841 13.5121 2.09026 13.4774 1.90451 13.4053C1.71877 13.3332 1.54908 13.2252 1.40517 13.0874C1.20913 12.8989 1.0673 12.6612 0.994476 12.3992C0.921656 12.1372 0.920524 11.8604 0.991198 11.5978C1.06187 11.3352 1.20176 11.0964 1.39625 10.9063C1.59074 10.7162 1.8327 10.5818 2.09686 10.5172V6.4802C1.88511 6.42979 1.68671 6.33436 1.51517 6.20039C1.34362 6.06642 1.20295 5.89706 1.10273 5.70384C1.00252 5.51062 0.945112 5.29808 0.93442 5.08068C0.923727 4.86329 0.960001 4.64614 1.04077 4.44402C1.12154 4.2419 1.24491 4.05955 1.40249 3.90939C1.56006 3.75924 1.74814 3.6448 1.95392 3.57386C2.15969 3.50292 2.37834 3.47715 2.59497 3.4983C2.8116 3.51946 3.02113 3.58704 3.2093 3.69645C3.33361 3.76817 3.44995 3.85688 3.54983 3.96207L7.04705 1.94492C6.93299 1.55999 6.97648 1.14552 7.16795 0.79265C7.35943 0.439783 7.68322 0.17741 8.06811 0.0632281C8.32982 -0.0150238 8.60782 -0.021018 8.87266 0.0458808C9.13749 0.11278 9.3793 0.250079 9.57245 0.44323C9.7656 0.63638 9.9029 0.878187 9.9698 1.14302C10.0367 1.40786 10.0307 1.68586 9.95245 1.94757V1.9481ZM9.58748 2.57073C9.57367 2.58454 9.56252 2.59835 9.54605 2.61217L14.1228 10.5368C14.1419 10.5315 14.1642 10.5257 14.1807 10.5204V6.47807C13.9879 6.43041 13.8065 6.34517 13.6467 6.22724C13.487 6.10931 13.3521 5.961 13.2498 5.79083C13.1474 5.62065 13.0797 5.43196 13.0505 5.23556C13.0213 5.03916 13.0311 4.83892 13.0794 4.64632C13.082 4.62985 13.0879 4.6102 13.0905 4.59373L9.58748 2.57073ZM7.45133 2.61217L7.40989 2.57073L3.90683 4.59054C4.01777 4.97617 3.97109 5.39007 3.77704 5.7413C3.583 6.09253 3.25746 6.35237 2.87195 6.46373L2.8167 6.47754V10.5198L2.8778 10.5363L7.45451 2.61163L7.45133 2.61217ZM8.92342 2.97182C8.64738 3.04939 8.35531 3.04939 8.07927 2.97182L3.50255 10.8965C3.71027 11.0957 3.85689 11.3528 3.92861 11.6354H13.0735C13.1426 11.3534 13.2892 11.0957 13.4996 10.8938L8.92342 2.97182ZM9.62042 14.4654L13.1012 12.4541C13.09 12.4206 13.082 12.3877 13.0735 12.3542H3.92595L3.90948 12.4121L7.40989 14.4319C7.55104 14.2854 7.72038 14.1689 7.90772 14.0894C8.09506 14.01 8.29653 13.9693 8.50002 13.9698C8.94573 13.9698 9.34417 14.1605 9.62042 14.4649V14.4654Z"
    fill="currentColor"
  />
</svg>
