<svg
  width="1em"
  height="1em"
  viewBox="0 0 17 17"
  fill="none"
  xmlns="http://www.w3.org/2000/svg"
>
  <path
    d="M3.1875 6.90625H1.59375C1.45285 6.90625 1.31773 6.85028 1.2181 6.75065C1.11847 6.65102 1.0625 6.5159 1.0625 6.375C1.0625 6.2341 1.11847 6.09898 1.2181 5.99935C1.31773 5.89972 1.45285 5.84375 1.59375 5.84375H3.1875C3.3284 5.84375 3.46352 5.89972 3.56315 5.99935C3.66278 6.09898 3.71875 6.2341 3.71875 6.375C3.71875 6.5159 3.66278 6.65102 3.56315 6.75065C3.46352 6.85028 3.3284 6.90625 3.1875 6.90625Z"
    fill="currentColor"
  />
  <path
    d="M2.99658 2.99658L4.1235 4.1235L2.99658 2.99658Z"
    fill="currentColor"
  />
  <path
    d="M4.12351 4.65477C4.05373 4.65491 3.98462 4.64121 3.92017 4.61448C3.85571 4.58776 3.79719 4.54852 3.74798 4.49905L2.62074 3.37214C2.5211 3.2725 2.46512 3.13736 2.46512 2.99644C2.46512 2.85553 2.5211 2.72039 2.62074 2.62075C2.72038 2.52111 2.85552 2.46513 2.99643 2.46513C3.13734 2.46513 3.27248 2.52111 3.37212 2.62075L4.49904 3.748C4.57328 3.82229 4.62384 3.91693 4.64432 4.01995C4.6648 4.12297 4.65428 4.22975 4.61409 4.32679C4.5739 4.42383 4.50585 4.50679 4.41853 4.56516C4.33121 4.62354 4.22854 4.65473 4.12351 4.65477Z"
    fill="currentColor"
  />
  <path
    d="M6.375 3.71875C6.2341 3.71875 6.09898 3.66278 5.99935 3.56315C5.89972 3.46352 5.84375 3.3284 5.84375 3.1875V1.59375C5.84375 1.45285 5.89972 1.31773 5.99935 1.2181C6.09898 1.11847 6.2341 1.0625 6.375 1.0625C6.5159 1.0625 6.65102 1.11847 6.75065 1.2181C6.85028 1.31773 6.90625 1.45285 6.90625 1.59375V3.1875C6.90625 3.3284 6.85028 3.46352 6.75065 3.56315C6.65102 3.66278 6.5159 3.71875 6.375 3.71875Z"
    fill="currentColor"
  />
  <path
    d="M9.75809 2.99658L8.63118 4.1235L9.75809 2.99658Z"
    fill="currentColor"
  />
  <path
    d="M8.6328 4.65477C8.52776 4.65473 8.4251 4.62354 8.33778 4.56516C8.25046 4.50679 8.18241 4.42383 8.14222 4.32679C8.10203 4.22975 8.09151 4.12297 8.11199 4.01995C8.13246 3.91693 8.18302 3.82229 8.25727 3.748L9.38418 2.62075C9.43352 2.57141 9.49209 2.53228 9.55655 2.50558C9.62101 2.47888 9.6901 2.46513 9.75988 2.46513C9.82965 2.46513 9.89874 2.47888 9.9632 2.50558C10.0277 2.53228 10.0862 2.57141 10.1356 2.62075C10.1849 2.67009 10.224 2.72866 10.2507 2.79312C10.2774 2.85758 10.2912 2.92667 10.2912 2.99644C10.2912 3.06622 10.2774 3.13531 10.2507 3.19977C10.224 3.26423 10.1849 3.3228 10.1356 3.37214L9.00699 4.49905C8.95791 4.54832 8.8996 4.58743 8.83539 4.61415C8.77119 4.64087 8.70234 4.65468 8.6328 4.65477Z"
    fill="currentColor"
  />
  <path
    d="M4.1235 8.63118L2.99658 9.75809L4.1235 8.63118Z"
    fill="currentColor"
  />
  <path
    d="M2.99659 10.2893C2.89152 10.2893 2.78881 10.2581 2.70145 10.1998C2.61408 10.1414 2.54597 10.0585 2.50574 9.96143C2.46551 9.86437 2.45496 9.75757 2.47543 9.65452C2.4959 9.55146 2.54646 9.4568 2.62073 9.38248L3.74797 8.25557C3.84811 8.15836 3.98246 8.10446 4.12201 8.10551C4.26156 8.10656 4.39509 8.16248 4.49375 8.26118C4.5924 8.35988 4.64826 8.49344 4.64925 8.63298C4.65024 8.77253 4.59628 8.90687 4.49903 9.00695L3.37212 10.1339C3.27248 10.2334 3.13741 10.2893 2.99659 10.2893Z"
    fill="currentColor"
  />
  <path
    d="M7.27149 5.04122C7.19133 4.96105 7.09616 4.89746 6.99142 4.85408C6.88668 4.81069 6.77442 4.78836 6.66105 4.78836C6.54768 4.78836 6.43542 4.81069 6.33068 4.85408C6.22594 4.89746 6.13078 4.96105 6.05061 5.04122L5.04024 6.05159C4.96008 6.13175 4.89648 6.22692 4.8531 6.33166C4.80971 6.4364 4.78738 6.54866 4.78738 6.66203C4.78738 6.7754 4.80971 6.88766 4.8531 6.9924C4.89648 7.09714 4.96008 7.1923 5.04024 7.27247L6.93149 9.16405C6.94383 9.1764 6.95847 9.18619 6.9746 9.19288C6.99072 9.19956 7.008 9.203 7.02546 9.203C7.04291 9.203 7.06019 9.19956 7.07632 9.19288C7.09244 9.18619 7.10709 9.1764 7.11942 9.16405L9.16407 7.1194C9.17642 7.10707 9.18621 7.09242 9.1929 7.0763C9.19958 7.06017 9.20302 7.04289 9.20302 7.02544C9.20302 7.00798 9.19958 6.9907 9.1929 6.97458C9.18621 6.95845 9.17642 6.94381 9.16407 6.93147L7.27149 5.04122Z"
    fill="currentColor"
  />
  <path
    d="M15.6822 13.4509L10.1017 7.86917C10.0894 7.85682 10.0748 7.84702 10.0586 7.84034C10.0425 7.83366 10.0252 7.83022 10.0078 7.83022C9.99032 7.83022 9.97304 7.83366 9.95691 7.84034C9.94079 7.84702 9.92614 7.85682 9.91381 7.86917L7.86916 9.91382C7.85681 9.92615 7.84702 9.9408 7.84033 9.95692C7.83365 9.97304 7.83021 9.99033 7.83021 10.0078C7.83021 10.0252 7.83365 10.0425 7.84033 10.0586C7.84702 10.0748 7.85681 10.0894 7.86916 10.1017L13.4513 15.6822C13.6132 15.844 13.8327 15.9349 14.0615 15.9349C14.2904 15.9349 14.5099 15.844 14.6718 15.6822L15.6822 14.6718C15.7624 14.5917 15.8259 14.4965 15.8693 14.3918C15.9127 14.287 15.935 14.1748 15.935 14.0614C15.935 13.948 15.9127 13.8358 15.8693 13.731C15.8259 13.6263 15.7624 13.5311 15.6822 13.4509Z"
    fill="currentColor"
  />
</svg>
