<svg width="50" height="50" viewBox="0 0 80 80" fill="none" xmlns="http://www.w3.org/2000/svg">
<rect width="80" height="80"/>
<path d="M64.7227 46.2233C62.7404 56.0416 41.3397 60.9495 39.9029 75.0237C34.1057 70.5753 32.5973 64.1545 34.0362 59.4808C38.4578 51.496 48.5417 44.5714 53.5311 38.0908C57.2962 45.2241 43.6777 55.8197 46.3535 54.2303C52.2404 50.7338 53.9799 47.8261 56.0589 46.3029C61.2563 42.495 65.9681 22.2472 70.984 24.9286C70.4969 29.6995 67.1544 34.1789 64.7227 46.2233Z" fill="#8CC7F7"/>
<path d="M11.5186 33.7258C9.053 22.2024 15.4433 12.4105 22.4467 4.49881C19.1202 23.1993 23.2623 24.6145 25.4806 34.1673C26.6063 39.0149 22.3429 47.1033 28.8855 55.6172C31.4806 58.9942 13.7777 44.2843 11.5186 33.7258Z" fill="#FF543D"/>
<path d="M33.726 26.6619C40.8603 17.3079 52.5322 15.9436 63.1795 16.269C46.7575 25.7631 48.4194 29.8908 42.6205 37.7804C39.6778 41.7841 30.7076 43.6989 28.5575 54.273C27.7047 58.4671 27.1891 35.2325 33.726 26.6619Z" fill="#0EE17A"/>
<path d="M21.7672 29.9634C23.9644 18.4062 33.7936 11.9656 43.4622 7.49459C33.0206 23.331 36.3532 26.2796 34.6954 35.9297C33.8541 40.8267 26.6875 46.5514 29.4939 56.9705C30.607 61.1032 19.7539 40.5527 21.7672 29.9634Z" fill="#F7E225"/>
<path d="M64.0665 44.2548C62.0842 54.0731 40.6835 58.981 39.2467 73.0552C33.4495 68.6068 31.9411 62.186 33.38 57.5123C37.8016 49.5275 47.8855 42.6029 52.8749 36.1223C56.64 43.2556 43.0215 53.8511 45.6973 52.2618C51.5843 48.7653 53.3237 45.8576 55.4027 44.3344C60.6001 40.5264 65.312 20.2787 70.3278 22.9601C69.8407 27.731 66.4982 32.2104 64.0665 44.2548Z" fill="#2C98F0"/>
<defs>
<radialGradient id="paint0_radial" cx="0" cy="0" r="1" gradientUnits="userSpaceOnUse" gradientTransform="translate(40 37.2) rotate(90) scale(52.8)">
<stop stop-color="white"/>
<stop offset="0.746212" stop-color="#8CC7F7"/>
</radialGradient>
</defs>
</svg>
